<svg width="15" height="8" viewBox="0 0 15 8" fill="none" xmlns="http://www.w3.org/2000/svg">
<path d="M7.57102 5.314L12.521 0.364004C12.6133 0.268494 12.7236 0.192312 12.8456 0.139903C12.9676 0.0874936 13.0988 0.0599074 13.2316 0.0587536C13.3644 0.0575998 13.4961 0.0829015 13.619 0.133182C13.7419 0.183463 13.8535 0.257716 13.9474 0.351609C14.0413 0.445502 14.1156 0.557154 14.1658 0.68005C14.2161 0.802946 14.2414 0.934626 14.2403 1.06741C14.2391 1.20018 14.2115 1.3314 14.1591 1.45341C14.1067 1.57541 14.0305 1.68576 13.935 1.778L8.27802 7.435C8.09049 7.62247 7.83619 7.72779 7.57102 7.72779C7.30586 7.72779 7.05155 7.62247 6.86402 7.435L1.20702 1.778C1.11151 1.68576 1.03533 1.57541 0.98292 1.45341C0.930511 1.3314 0.902925 1.20018 0.901771 1.06741C0.900617 0.934626 0.925919 0.802946 0.9762 0.68005C1.02648 0.557154 1.10073 0.445502 1.19463 0.351609C1.28852 0.257716 1.40017 0.183463 1.52307 0.133182C1.64596 0.0829015 1.77764 0.0575998 1.91042 0.0587536C2.0432 0.0599074 2.17442 0.0874936 2.29643 0.139903C2.41843 0.192312 2.52877 0.268494 2.62102 0.364004L7.57102 5.314Z" fill="#0F172A"/>
</svg>
